HIERARCHY
ROOT SimulationBone
{
	OFFSET 0.000000 0.000000 0.000000
	CHANNELS 6 Xposition Yposition Zposition Zrotation Yrotation Xrotation 
	JOINT Hips
	{
		OFFSET 0.000000 0.000000 0.000000
		CHANNELS 6 Xposition Yposition Zposition Zrotation Yrotation Xrotation 
		JOINT LeftUpLeg
		{
			OFFSET 0.103457 1.857840 10.548497
			CHANNELS 3 Zrotation Yrotation Xrotation
			JOINT LeftLeg
			{
				OFFSET 43.499996 -0.000046 -0.000021
				CHANNELS 3 Zrotation Yrotation Xrotation
				JOINT LeftFoot
				{
					OFFSET 42.372200 0.000019 0.000010
					CHANNELS 3 Zrotation Yrotation Xrotation
					JOINT LeftToe
					{
						OFFSET 17.299992 -0.000004 -0.000006
						CHANNELS 3 Zrotation Yrotation Xrotation
						End Site
						{
							OFFSET 0.000000 0.000000 0.000000
						}
					}
				}
			}
		}
		JOINT RightUpLeg
		{
			OFFSET 0.103462 1.857830 -10.548500
			CHANNELS 3 Zrotation Yrotation Xrotation
			JOINT RightLeg
			{
				OFFSET 43.500050 -0.000008 0.000013
				CHANNELS 3 Zrotation Yrotation Xrotation
				JOINT RightFoot
				{
					OFFSET 42.372265 -0.000008 0.000010
					CHANNELS 3 Zrotation Yrotation Xrotation
					JOINT RightToe
					{
						OFFSET 17.299980 -0.000009 0.000011
						CHANNELS 3 Zrotation Yrotation Xrotation
						End Site
						{
							OFFSET 0.000000 0.000000 0.000000
						}
					}
				}
			}
		}
		JOINT Spine
		{
			OFFSET 6.901966 -2.603740 0.000004
			CHANNELS 3 Zrotation Yrotation Xrotation
			JOINT Spine1
			{
				OFFSET 12.588106 0.000010 -0.000001
				CHANNELS 3 Zrotation Yrotation Xrotation
				JOINT Spine2
				{
					OFFSET 12.343197 0.000001 -0.000010
					CHANNELS 3 Zrotation Yrotation Xrotation
					JOINT Neck
					{
						OFFSET 25.832893 -0.000006 0.000008
						CHANNELS 3 Zrotation Yrotation Xrotation
						JOINT Head
						{
							OFFSET 11.766615 -0.000006 -0.000000
							CHANNELS 3 Zrotation Yrotation Xrotation
							End Site
							{
								OFFSET 0.000000 0.000000 0.000000
							}
						}
					}
					JOINT LeftShoulder
					{
						OFFSET 19.745903 -1.480366 6.000110
						CHANNELS 3 Zrotation Yrotation Xrotation
						JOINT LeftArm
						{
							OFFSET 11.284130 -0.000010 -0.000024
							CHANNELS 3 Zrotation Yrotation Xrotation
							JOINT LeftForeArm
							{
								OFFSET 33.000046 0.000022 0.000031
								CHANNELS 3 Zrotation Yrotation Xrotation
								JOINT LeftHand
								{
									OFFSET 25.200022 0.000011 0.000002
									CHANNELS 3 Zrotation Yrotation Xrotation
									End Site
									{
										OFFSET 0.000000 0.000000 0.000000
									}
								}
							}
						}
					}
					JOINT RightShoulder
					{
						OFFSET 19.746103 -1.480371 -6.000066
						CHANNELS 3 Zrotation Yrotation Xrotation
						JOINT RightArm
						{
							OFFSET 11.284146 -0.000005 -0.000007
							CHANNELS 3 Zrotation Yrotation Xrotation
							JOINT RightForeArm
							{
								OFFSET 33.000076 0.000011 0.000008
								CHANNELS 3 Zrotation Yrotation Xrotation
								JOINT RightHand
								{
									OFFSET 25.199783 0.000146 0.000422
									CHANNELS 3 Zrotation Yrotation Xrotation
									End Site
									{
										OFFSET 0.000000 0.000000 0.000000
									}
								}
							}
						}
					}
				}
			}
		}
	}
}
MOTION
Frames: 6
Frame Time: 0.033333
-249.711053 0.000000 -52.501270 0.000000 75.892396 0.000000 -2.573538 89.628159 -0.465403 88.653372 2.868345 -166.309019 156.573153 -10.380497 171.648350 -33.461817 -0.760393 0.789679 85.885783 -1.618305 -5.650690 21.454551 0.003090 0.000000 167.325237 -0.899305 -162.824374 -25.854260 -3.195314 9.625802 88.683005 -5.587122 5.728111 21.454557 -0.003097 -0.000015 6.713563 1.533540 -0.063860 3.414364 3.068204 -0.083152 3.095769 3.067778 -0.101685 2.021865 0.728468 3.904478 -17.801157 -12.401505 8.797027 -158.090903 -82.541935 -23.736123 -15.361268 64.951076 27.929011 -44.188568 -15.562963 1.609964 5.579753 -4.820053 7.155619 -171.922186 75.829361 9.674556 1.351500 -56.424985 -26.379512 -39.054943 12.586238 -1.303516 6.915753 4.672035 -4.390615 
-250.187663 0.000000 -52.504849 0.000000 82.180224 0.000000 -2.550255 89.781380 -0.169940 87.948314 2.760913 -169.844300 155.824223 -11.083798 165.995167 -34.204187 -0.193138 -3.268722 86.589600 1.231782 -5.602694 21.454551 0.003101 -0.000000 167.459423 -1.031398 -161.689361 -24.886397 -3.731522 10.626807 88.161958 -6.137998 6.341781 21.454558 -0.003100 -0.000016 6.584119 1.527359 0.025494 3.157723 3.053421 0.091997 2.839131 3.054058 0.073546 2.104930 -0.033259 4.107781 -16.737753 -12.725330 8.833314 -158.519019 -82.285352 -23.306987 -14.904250 64.943658 28.164113 -44.734771 -15.819222 1.642713 5.430930 -4.999900 6.965520 -172.447783 75.901625 9.137327 1.232494 -56.226732 -26.894695 -38.124951 12.274929 -1.259756 7.259494 4.339287 -4.335675 
-250.725979 0.000000 -52.532444 0.000000 88.094128 0.000000 -2.561453 89.960953 0.137643 87.379372 2.486468 -173.036588 155.025186 -11.764797 159.683553 -35.424759 0.775293 -7.433580 86.339574 4.398447 -3.866087 21.454553 0.003099 0.000000 167.773789 -1.144702 -161.294535 -23.871841 -4.123099 12.000741 87.548320 -6.923650 7.064020 21.454555 -0.003104 -0.000016 6.474816 1.469537 0.114325 2.941134 2.935691 0.265336 2.622580 2.937384 0.247597 2.356890 -0.555883 4.247599 -16.029530 -13.159795 8.937179 -158.820381 -82.162108 -23.003806 -14.120233 65.016229 28.674097 -44.825312 -15.934618 1.652963 5.250695 -5.018053 7.354997 -172.701374 75.934184 8.878125 0.938570 -56.017619 -26.975692 -37.284541 11.755331 -1.205157 7.514887 4.056169 -4.065164 
-251.324892 0.000000 -52.587710 180.000000 86.389421 180.000000 -2.552676 90.122063 0.418571 86.999770 2.141542 -175.874778 154.526678 -12.477711 154.124025 -36.476229 1.389324 -10.957616 85.454368 7.256128 -1.372701 21.454551 0.003091 0.000000 168.293921 -1.150408 -160.976999 -22.946770 -4.430167 13.358136 86.982439 -7.691267 7.823666 21.454560 -0.003099 -0.000016 6.393277 1.384257 0.201146 2.779754 2.763331 0.434908 2.461266 2.766037 0.418211 2.706212 -0.845402 4.496540 -15.763868 -13.519245 9.232185 -158.702587 -82.175188 -23.122770 -13.162487 64.956820 29.389273 -44.648721 -15.628432 1.627637 5.107959 -5.019636 7.087410 -173.453515 75.998770 8.109231 1.045748 -56.105660 -27.093786 -36.715446 11.610001 -1.181964 7.804604 3.923145 -3.868688 
-251.983294 0.000000 -52.674299 180.000000 81.265358 180.000000 -2.501934 90.175980 0.651113 86.922752 1.906530 -178.377402 154.578287 -13.234604 149.663638 -37.057523 1.804941 -13.552794 84.759144 9.264302 -0.122039 21.454551 0.003088 0.000000 169.009261 -1.001405 -159.609076 -22.409255 -4.814074 14.059991 86.755130 -8.032404 8.525157 21.454557 -0.003109 -0.000017 6.367557 1.324644 0.264063 2.729435 2.642789 0.558791 2.410980 2.646251 0.542808 3.002317 -0.893873 4.798054 -15.655835 -14.014987 9.697409 -157.824211 -82.276732 -24.010529 -12.108142 64.928769 30.312530 -44.076587 -15.121552 1.577704 5.341254 -5.501758 6.862376 -174.608295 75.919451 6.927222 1.174802 -56.074234 -27.169331 -36.288136 11.664075 -1.175389 8.010604 3.835500 -3.524991 
-252.700075 0.000000 -52.795868 180.000000 76.508504 180.000000 -2.444290 90.057404 0.822422 86.938166 2.048029 179.306716 154.990379 -14.326998 146.430759 -37.170395 1.662838 -14.718212 84.895454 10.213620 0.709475 21.454551 0.003093 0.000000 169.615631 -0.991896 -158.072448 -22.442567 -5.117150 14.582044 86.832120 -8.254874 9.288729 21.454560 -0.003121 -0.000019 6.347046 1.354608 0.319380 2.689895 2.701536 0.669674 2.371432 2.705672 0.653351 3.255807 -1.095507 5.217185 -15.538969 -14.401415 10.213037 -156.324534 -82.186232 -25.530383 -10.665614 64.901188 31.844012 -43.058698 -14.667432 1.518925 5.470719 -5.680830 6.577489 -176.145620 76.147928 5.357692 1.543988 -56.030135 -27.109250 -36.310624 11.592202 -1.173372 7.986965 3.899573 -3.688384 
